<svg width="80" height="80" viewBox="0 0 80 80" fill="none" xmlns="http://www.w3.org/2000/svg">
<path d="M21.6221 28.7244C23.574 20.7727 32.9766 16.3412 40.7324 20.3933L41.0693 20.574C44.4867 22.4693 46.0524 25.0786 46.8701 27.4871C47.2816 28.6989 47.5032 29.8584 47.6807 30.7761C47.7926 31.3551 47.8806 31.7855 47.9658 32.1082C49.0829 32.3719 49.8349 32.4089 50.8525 32.5828C52.0803 32.7926 53.2786 33.1719 54.9639 34.2703V34.2712L55.3311 34.5183C62.7942 39.7 62.3664 49.458 57.3428 54.8015L57.0957 55.0564C54.9419 57.2215 52.3978 58.1501 49.6465 58.5437C47.636 58.8313 45.4263 58.841 43.1396 58.8279L40.832 58.8162C39.2665 58.8162 35.1977 58.8782 31.4082 58.863C29.4939 58.8554 27.603 58.8281 26.0557 58.7634C25.2827 58.7311 24.5812 58.6892 23.999 58.6335C23.4486 58.5809 22.9038 58.5082 22.501 58.3865L21.749 58.1589L21.541 57.4031C21.4756 57.1661 21.4379 56.865 21.4111 56.6033C21.3812 56.3105 21.3537 55.9504 21.3291 55.5398C21.2799 54.7167 21.2377 53.646 21.2031 52.4158C21.1339 49.9528 21.0942 46.8104 21.0879 43.6375C21.0816 40.4646 21.1089 37.2506 21.1768 34.6453C21.2107 33.3435 21.255 32.185 21.3105 31.2556C21.3641 30.3605 21.4326 29.5844 21.5342 29.1062L21.6221 28.7244Z" stroke="#D5A581" stroke-width="2.84629"/>
<path fill-rule="evenodd" clip-rule="evenodd" d="M2.97625 42.1378C1.54584 21.1618 18.3403 3.96362 37.7879 2.97678C59.0045 1.89959 75.7483 18.1429 76.9783 37.8749C78.2818 58.7866 61.5945 76.0996 42.0591 77.0255C20.7988 78.0335 4.3274 61.9454 2.97625 42.1378ZM79.8692 42.7452C81.6546 20.951 64.9445 1.95302 42.7773 0.107365C37.1105 -0.364536 30.3723 0.761431 25.6347 2.65513C17.5758 5.87668 13.3183 9.6128 8.3755 15.4517C6.96159 17.122 5.67641 19.2961 4.46474 21.5459C-3.90971 37.095 0.329874 55.2839 10.2803 66.9291C16.5484 74.2647 26.9994 79.0737 37.3182 79.8673C47.0481 80.6156 59.8382 76.7246 66.7844 69.6066C67.6758 68.693 68.3797 67.9188 69.3579 67.0184C75.0907 61.7392 79.1847 51.1028 79.8692 42.7452Z" fill="#D5A581"/>
</svg>
