<svg width="24" height="25" viewBox="0 0 24 25" fill="none" xmlns="http://www.w3.org/2000/svg">
<path d="M9.49986 2.25C9.0842 2.25 8.71188 2.50713 8.56467 2.89585L8.33508 3.50213C7.8429 3.45295 7.38943 3.40387 7.02233 3.36265C6.74793 3.33184 6.52235 3.30549 6.36566 3.28687L6.18491 3.26518L6.12352 3.25768C5.57543 3.18981 5.07531 3.57901 5.00744 4.1271C4.93957 4.6752 5.32887 5.17455 5.87696 5.24242L5.94376 5.25059L6.12973 5.27291C6.29008 5.29196 6.51995 5.31881 6.79917 5.35016C7.35714 5.41281 8.11443 5.49369 8.90897 5.5662C9.98075 5.66401 11.1556 5.75 11.9999 5.75C12.8441 5.75 14.019 5.66401 15.0907 5.5662C15.8853 5.49369 16.6426 5.41281 17.2005 5.35016C17.4798 5.31881 17.7096 5.29196 17.87 5.27291L18.056 5.25059L18.1226 5.24244C18.6707 5.17456 19.0602 4.6752 18.9923 4.1271C18.9244 3.57901 18.4251 3.18972 17.877 3.25758L17.8148 3.26518L17.6341 3.28687C17.4774 3.30549 17.2518 3.33184 16.9774 3.36265C16.6103 3.40387 16.1568 3.45295 15.6646 3.50213L15.4351 2.89585C15.2878 2.50713 14.9155 2.25 14.4999 2.25H9.49986Z" fill="#98A2B3"/>
<path d="M10.9999 12.25C10.9999 11.6977 10.5521 11.25 9.99986 11.25C9.44758 11.25 8.99986 11.6977 8.99986 12.25V17.25C8.99986 17.8023 9.44758 18.25 9.99986 18.25C10.5521 18.25 10.9999 17.8023 10.9999 17.25V12.25Z" fill="#98A2B3"/>
<path d="M13.9999 11.25C14.5521 11.25 14.9999 11.6977 14.9999 12.25V17.25C14.9999 17.8023 14.5521 18.25 13.9999 18.25C13.4476 18.25 12.9999 17.8023 12.9999 17.25V12.25C12.9999 11.6977 13.4476 11.25 13.9999 11.25Z" fill="#98A2B3"/>
<path fill-rule="evenodd" clip-rule="evenodd" d="M18.9095 8.55056C19.0001 7.28179 17.9063 6.26463 16.6632 6.4083C15.3911 6.5553 13.4282 6.75 11.9999 6.75C10.5715 6.75 8.6086 6.5553 7.33657 6.4083C6.09344 6.26463 4.99958 7.28179 5.09021 8.55056L5.94694 20.5448C6.01189 21.454 6.68912 22.2228 7.6185 22.3626C8.61511 22.5124 10.4438 22.7518 12.001 22.75C13.5391 22.7482 15.3752 22.5099 16.3762 22.3614C17.3072 22.2232 17.9878 21.454 18.053 20.5421L18.9095 8.55056ZM16.8928 8.39507C16.8962 8.39467 16.8989 8.39491 16.8989 8.39491L16.9015 8.39551C16.9038 8.39628 16.9072 8.39811 16.9107 8.40137C16.913 8.40353 16.9147 8.40617 16.9147 8.40617L16.9146 8.40806L16.059 20.3865C15.0683 20.5329 13.3704 20.7484 11.9987 20.75C10.6121 20.7516 8.92473 20.5359 7.94087 20.3885L7.08513 8.40806L7.08505 8.40617C7.08505 8.40617 7.08675 8.40353 7.08903 8.40137C7.09248 8.39811 7.09597 8.39628 7.09819 8.39551L7.10083 8.39491C7.10083 8.39491 7.10349 8.39467 7.10696 8.39507C8.38125 8.54234 10.4453 8.75 11.9999 8.75C13.5544 8.75 15.6185 8.54234 16.8928 8.39507Z" fill="#98A2B3"/>
</svg>
