<svg width="172" height="76" viewBox="0 0 172 76" fill="none" xmlns="http://www.w3.org/2000/svg">
<path fill-rule="evenodd" clip-rule="evenodd" d="M127.986 38.1749L137.565 43.1872C138.061 43.5476 138.036 43.5399 138.354 43.8696C135.832 44.9151 134.524 45.9621 132.862 47.3604C130.183 46.0321 127.621 43.5575 126.233 42.9458C126.734 41.7015 127.411 39.4955 127.986 38.1749ZM99.2055 42.1935C99.8486 39.786 101.5 36.5464 102.456 33.5959C103.225 31.2199 104.16 27.0979 105.16 25.0473C106.974 26.4015 110.378 33.5826 111.551 36.7186C111.842 33.9962 108.761 27.0398 107.62 25.3608C112.624 25.5841 122.675 31.6972 127.215 32.4012C126.089 41.7455 126.928 42.3138 117.706 42.8485C111.239 43.2236 105.532 42.803 99.2055 42.1935ZM106.109 22.6769C109.286 21.117 113.996 18.9671 118.137 20.14C118.616 23.402 116.473 23.5643 113.437 23.5839C111.662 23.5958 107.557 23.8107 106.109 22.6769ZM97.9625 20.6131C97.0702 20.084 93.5402 17.4659 95.0029 15.9277C97.4593 13.3445 105.011 17.6758 104.163 22.4572C102.567 22.4817 99.3006 21.4074 97.9625 20.6131ZM81.652 19.6508C82.3084 14.8156 85.7118 4.99889 89.1207 3.14011C91.6038 1.78591 106.692 4.48033 109.569 5.57558L104.752 20.1008C103.425 17.6101 102.776 16.0984 100.265 14.8646C95.7027 12.6223 90.6855 14.8751 95.2947 20.5879C90.6177 20.4444 86.716 19.438 81.652 19.6508ZM111.656 44.9263C113.042 44.1187 116.156 44.3973 118.131 44.505C121.284 48.259 122.872 53.9592 128.566 54.5639L127.009 53.2391C124.051 50.8113 120.133 44.6933 119.287 44.4945L125.37 43.3804C127.961 47.247 129.785 46.205 132.084 48.4221C131.071 50.1248 129.646 53.8143 129.438 56.3163C133.336 51.8303 130.756 48.5452 141.6 43.6428C140.108 42.8254 139.987 43.7338 138.01 42.2446C133.706 39.005 130.076 38.2694 128.04 36.8424L129.015 31.0135C131.098 33.043 134.492 35.1229 138.881 35.1495C141.074 39.7146 145.543 36.5709 144.009 43.8374C142.636 50.3424 142.978 50.446 143.932 56.6256C144.29 55.5702 143.798 49.5187 144.482 46.5052C145.239 43.176 146.598 39.6866 143.888 37.6515C140.82 35.3483 139.795 36.1083 138.949 31.0176C138.334 27.3176 138.166 23.5783 141.845 22.9667C144.993 39.786 155.787 35.5736 159.393 42.7274C161.643 47.1917 160.489 53.617 162.218 58.3269C163.569 62.0074 167.602 66.5102 171.63 67.2373C168.192 64.7627 164.644 63.2076 162.914 57.1925C161.37 51.8205 163.11 45.9635 160.167 41.087C157.724 37.0384 152.964 36.9964 148.999 33.4167C142.89 27.9013 144.606 22.7504 142.295 21.6391C139.5 21.0134 137.889 23.15 137.438 25.7661C136.893 28.9307 137.734 31.3319 138.154 34.139C131.856 31.9981 132.303 31.3214 129.164 30.1198C129.639 24.4727 131.552 17.4036 131.398 11.9294C129.718 14.9996 127.949 27.9922 127.367 32.2998C125.853 31.8225 126.219 31.933 124.804 31.0086C119.702 27.6773 114.848 26.6611 110.487 24.5385C115.249 24.1032 120.893 25.5197 119.087 19.1C114.95 17.4554 109.89 19.2092 106.304 20.83C107.235 16.7465 109.79 9.59128 109.845 5.43562L131.759 10.5228C129.77 10.0322 126.719 8.72136 124.295 7.98512C116.275 5.54897 107.765 3.6125 99.4273 2.00006C92.3841 0.638869 87.8799 -0.271614 84.9035 5.79183C83.8152 8.00823 82.7857 10.6928 82.0005 13.1535C78.2934 24.7716 83.9909 19.2505 64.8187 25.519C60.938 26.7878 52.4853 30.6419 50.5783 30.3675C51.6602 26.9467 53.8619 25.8955 56.4499 24.0192C62.139 19.895 63.1026 13.6049 55.6045 17.1552C44.8675 22.2388 43.1452 24.7352 37.8628 33.288C30.1387 45.7949 17.5786 53.1866 4.85122 60.6777C3.93373 61.218 3.65448 61.3265 2.72719 61.9731L1 63.5576C6.10325 61.5546 21.1772 52.0109 26.0341 48.4543C43.4707 35.6849 36.3645 28.1259 55.2455 18.9468C55.9013 18.6283 56.8468 18.0342 57.5445 17.7542C60.8765 16.4175 60.4342 19.4486 54.7101 23.9982C52.5588 25.7086 49.8238 27.3666 50.0044 31.1723C61.7519 29.5158 74.6536 22.9898 79.6875 21.7776L78.9016 28.0762C76.252 29.387 66.2512 32.0016 63.7815 37.2155C67.7496 35.3553 71.7877 31.896 78.7077 29.1232L78.8757 36.7865L81.3734 20.2163C84.9335 20.3723 89.1025 21.0764 92.587 21.66C96.5579 22.3249 99.0767 23.2879 102.561 24.1837C100.666 25.6611 95.9218 29.4311 95.5369 31.5278C97.8162 30.4011 100.553 27.587 103.188 26.0208L98.9024 42.0311C92.7494 41.5755 81.3993 38.3625 79.8268 38.4276C80.1018 38.4171 90.4588 41.7623 91.3812 42.0689L82.1622 44.4288L87.0695 41.1325C84.0594 41.9681 81.6142 43.3797 78.9261 44.7927C77.3683 45.6115 73.0173 47.4829 72.9214 48.8714C72.666 52.5896 91.4323 39.1715 96.6867 43.7093C96.5159 46.727 92.5835 47.8916 89.7534 49.1814C80.2467 53.5127 73.7557 58.0288 65.2183 61.9346C55.1846 66.5256 52.8464 65.0314 44.8346 66.3037C39.1358 67.2086 32.4376 70.6022 29.0623 75C31.8463 73.4876 33.7722 71.6736 36.96 70.0689C40.0141 68.5306 42.6686 67.5726 46.578 67.4158C63.1985 66.7467 69.2193 61.9262 83.522 53.6744C87.4656 51.3992 98.1088 47.9965 97.2851 43.365C99.5715 43.3482 102.098 43.8899 104.426 44.1194C106.614 44.3343 110.242 43.9941 111.656 44.9263Z" fill="#D5A581" stroke="#D5A581"/>
<path fill-rule="evenodd" clip-rule="evenodd" d="M111.657 44.9265C112.032 47.6538 112.916 52.0586 113.913 54.3625C115.86 58.8632 131.205 68.7212 132.489 68.7785C131.422 67.9639 130.927 66.9968 129.67 66.0247L120.229 58.7428C111.28 52.2553 115.504 49.6533 111.657 44.9265Z" fill="#D5A581" stroke="#D5A581"/>
<path fill-rule="evenodd" clip-rule="evenodd" d="M62.1289 36.8508C62.9778 40.8889 68.3673 47.6998 70.604 48.842C70.0371 47.1371 68.4828 45.2112 67.6136 43.7093L68.8733 42.8765C71.6013 41.5209 77.0006 39.6621 78.704 37.6773C75.1565 38.014 68.9244 41.0184 66.92 42.6462C65.1361 40.8182 64.3565 37.8236 62.1289 36.8508Z" fill="#D5A581" stroke="#D5A581"/>
</svg>
