<svg width="78" height="33" viewBox="0 0 78 33" fill="none" xmlns="http://www.w3.org/2000/svg">
<path fill-rule="evenodd" clip-rule="evenodd" d="M40.1011 11.51C42.5077 10.7194 45.9783 8.78993 48.7785 7.62668C55.3244 4.90662 73.9903 -1.88136 75.4026 8.48343C77.285 22.3101 52.5695 15.409 44.6566 13.1957C43.5647 12.8892 40.836 12.2762 40.1011 11.51ZM69.677 29.1143C62.1111 24.3636 49.4552 15.9179 49.4552 15.9179C57.3604 19.261 72.0278 21.6135 76.5973 14.9788C79.3556 10.9771 80.4962 -5.07162 55.6691 2.53828C46.546 5.33496 40.3849 9.27398 37.0066 10.3606C34.4328 8.68888 32.6775 7.0764 29.8825 5.4064C22.3963 0.927529 8.16567 -2.1722 2.38424 3.52913C0.550546 5.33844 -0.663281 9.31402 0.392004 12.7777C3.74245 23.7624 28.5069 15.3602 27.2809 16.0811L4.56447 29.4603L8.21791 32.2447C13.9837 27.8233 30.8734 16.0324 36.7419 13.4604C42.7567 17.7947 51.554 26.1231 60.1756 32.6333L69.677 29.1143ZM34.1194 11.2644C33.8129 11.5169 34.2813 11.2558 33.6074 11.5953L31.9792 12.1125C31.2896 12.3005 30.6522 12.4799 29.9052 12.6784C23.7946 14.2944 11.7668 17.6083 6.09337 15.3445C3.43078 14.2805 1.6894 11.86 2.67503 8.05675C5.00676 -0.92014 22.365 3.03811 30.8595 8.93969C31.9636 9.70591 33.024 10.6775 34.1194 11.2644Z" fill="black"/>
</svg>
