<svg width="181" height="78" viewBox="0 0 181 78" fill="none" xmlns="http://www.w3.org/2000/svg">
<g opacity="0.5">
<path d="M30.9631 20.4032V23.4173V33.5434L21.1147 20.4032H18.5273V24.5552V33.5095V37.2958H19.0828V33.5095V21.7917L31.2069 37.736H31.6675V23.6341V20.4032H30.9631ZM43.3311 30.807L46.2843 23.546L49.2984 30.807H43.3311ZM50.8427 34.5594C50.8427 34.5594 51.2152 35.4805 52.1364 37.7293H54.8457L47.4899 20.4032H46.9955L39.8225 37.7293H40.7437L43.1753 31.3895H49.549L50.8427 34.5594ZM63.1226 20.4032V24.711V33.2386V37.7293H65.6152V33.2386V24.711V20.4032H63.1226ZM77.035 37.1468V20.4032H74.5424V24.7449V33.2724V37.736H86.5785V37.1535L77.035 37.1468ZM85.7115 28.1586H86.5717L89.4978 20.9586H87.9603L85.7115 28.1586ZM103.498 37.1468V21.0805C104.081 21.0196 104.792 21.0196 105.435 21.0196C106.756 21.0196 107.833 21.1754 108.7 21.4192C109.533 21.6969 110.299 22.1575 111.01 22.8958C111.714 23.6002 112.27 24.5281 112.608 25.666C112.981 26.8378 113.191 28.0976 113.191 29.5742C113.191 31.4233 112.852 32.9609 112.209 34.1597C111.592 35.3586 110.759 36.1579 109.811 36.5575C108.856 36.9571 107.623 37.1738 106.119 37.1738H103.505L103.498 37.1468ZM101.006 37.7293H105.713C107.129 37.7293 108.239 37.6683 109.005 37.5735C109.804 37.5125 110.603 37.2958 111.464 36.93C112.358 36.5575 113.123 36.0359 113.773 35.3315C114.451 34.6542 114.945 33.794 115.345 32.7441C115.717 31.701 115.927 30.5563 115.927 29.2965C115.927 27.5422 115.555 26.0318 114.884 24.711C114.18 23.3563 113.13 22.3404 111.714 21.575C110.299 20.7757 108.3 20.4032 105.774 20.4032C105.774 20.4032 104.941 20.4032 101.006 20.4032V37.7293ZM134.432 20.4032V24.711V33.2386V37.7293H136.924V33.2386V24.711V20.4032H134.432ZM161.728 20.4032H144.896L144.863 20.9857H149.482H152.008V33.1708V37.7225H154.501V33.1708V20.9857H157.332H161.701V20.4032C161.694 20.4032 161.728 20.4032 161.728 20.4032Z" fill="black"/>
<path d="M61.4296 50.7204H60.7861V56.7215H63.7393V56.2271H61.4296V50.7204ZM71.3389 56.7825C71.9553 56.7825 72.4768 56.6605 72.9713 56.3828C73.4657 56.139 73.8315 55.7665 74.1092 55.3059C74.3869 54.8453 74.5427 54.3238 74.5427 53.7074C74.5427 53.1249 74.4208 52.5966 74.1092 52.1089C73.8315 51.6483 73.4657 51.2758 72.9713 51.0319C72.4768 50.7881 71.9282 50.6323 71.3389 50.6323C70.7496 50.6323 70.201 50.7542 69.7065 51.0319C69.2121 51.2758 68.8463 51.6483 68.5686 52.1089C68.2909 52.5695 68.1351 53.091 68.1351 53.7074C68.1351 54.2899 68.2909 54.8182 68.5686 55.3059C68.8463 55.7665 69.246 56.139 69.7065 56.3828C70.201 56.6605 70.7564 56.7825 71.3389 56.7825ZM71.3389 56.2609C70.8445 56.2609 70.4177 56.1661 70.0452 55.9561C69.6727 55.7462 69.3679 55.4617 69.1511 55.0621C68.9344 54.6624 68.8125 54.2289 68.8125 53.7074C68.8125 53.1859 68.9344 52.7524 69.1511 52.3527C69.3679 51.9802 69.6727 51.6754 70.0452 51.4587C70.4177 51.2419 70.8445 51.1539 71.3389 51.1539C71.8334 51.1539 72.2601 51.2487 72.6326 51.4587C73.0051 51.6686 73.3099 51.9531 73.5267 52.3527C73.7434 52.7253 73.8653 53.1859 73.8653 53.7074C73.8653 54.2289 73.7434 54.6624 73.5267 55.0621C73.3099 55.4617 73.0051 55.7394 72.6326 55.9561C72.2601 56.1661 71.8334 56.2609 71.3389 56.2609ZM84.391 50.7204H83.7476V55.7665L80.178 50.7204H79.5346V56.7215H80.178V51.6754L83.7476 56.7215H84.391V50.7204ZM91.5572 50.7204H89.6471V56.7215H91.5572C92.2616 56.7215 92.878 56.5996 93.4063 56.349C93.9346 56.0984 94.3003 55.7665 94.578 55.3059C94.8557 54.8453 94.9777 54.3238 94.9777 53.7074C94.9777 53.091 94.8557 52.5356 94.578 52.1089C94.3003 51.6483 93.9007 51.3097 93.4063 51.0658C92.8847 50.8423 92.2684 50.7204 91.5572 50.7204ZM91.5572 56.2271H90.2973V51.2081H91.5572C92.4512 51.2081 93.1286 51.4248 93.6162 51.8854C94.0768 52.3189 94.3207 52.9285 94.3207 53.7345C94.3207 54.5337 94.0768 55.1162 93.6162 55.5836C93.1286 56.0103 92.4512 56.2271 91.5572 56.2271ZM102.855 56.7825C103.471 56.7825 103.993 56.6605 104.487 56.3828C104.982 56.139 105.348 55.7665 105.625 55.3059C105.903 54.8453 106.059 54.3238 106.059 53.7074C106.059 53.1249 105.903 52.5966 105.625 52.1089C105.348 51.6483 104.982 51.2758 104.487 51.0319C103.993 50.7881 103.444 50.6323 102.855 50.6323C102.266 50.6323 101.717 50.7542 101.223 51.0319C100.728 51.2758 100.362 51.6483 100.085 52.1089C99.807 52.5695 99.6512 53.091 99.6512 53.7074C99.6512 54.2899 99.807 54.8182 100.085 55.3059C100.362 55.7665 100.762 56.139 101.223 56.3828C101.717 56.6605 102.266 56.7825 102.855 56.7825ZM102.855 56.2609C102.361 56.2609 101.934 56.1661 101.561 55.9561C101.189 55.7394 100.884 55.4617 100.667 55.0621C100.45 54.6624 100.329 54.2289 100.329 53.7074C100.329 53.1859 100.45 52.7524 100.667 52.3527C100.884 51.9802 101.189 51.6754 101.561 51.4587C101.934 51.2419 102.361 51.1539 102.855 51.1539C103.349 51.1539 103.776 51.2487 104.149 51.4587C104.521 51.6754 104.826 51.9531 105.043 52.3527C105.26 52.7253 105.381 53.1859 105.381 53.7074C105.381 54.2289 105.26 54.6624 105.043 55.0621C104.826 55.4617 104.521 55.7394 104.149 55.9561C103.776 56.1661 103.343 56.2609 102.855 56.2609ZM115.9 50.7204H115.257V55.7665L111.653 50.7204H111.01V56.7215H111.653V51.6754L115.223 56.7215H115.866V50.7204H115.9Z" fill="black"/>
</g>
</svg>
