<?xml version="1.0" encoding="UTF-8"?>
<svg version="1.1" xmlns="http://www.w3.org/2000/svg" width="64" height="64">
<path d="M0 0 C4.51315789 2.02631579 4.51315789 2.02631579 6 5 C6.12296548 7.50663266 6.18833995 9.98444019 6.203125 12.4921875 C6.20882507 13.23453644 6.21452515 13.97688538 6.22039795 14.74172974 C6.22984905 16.31364516 6.23638237 17.88558041 6.24023438 19.45751953 C6.24993436 21.85875152 6.28095289 24.25912543 6.3125 26.66015625 C6.31903077 28.18749492 6.32428095 29.71483971 6.328125 31.2421875 C6.3404718 31.95897675 6.3528186 32.67576599 6.36553955 33.41427612 C6.35172363 36.51687795 6.17591026 38.68033303 4.66699219 41.42236328 C1.21634832 44.68804293 -3.06691314 44.32569771 -7.55078125 44.29296875 C-10.98593845 43.88206478 -12.70169014 42.52072694 -15 40 C-17.24035124 35.51929752 -16.2685735 29.43447387 -16.29516602 24.4519043 C-16.31235651 22.20624427 -16.35624 19.96206567 -16.40039062 17.71679688 C-16.41052001 16.28386497 -16.41903535 14.85092057 -16.42578125 13.41796875 C-16.44036377 12.11625732 -16.45494629 10.8145459 -16.4699707 9.47338867 C-15.92567643 5.45070055 -14.83894204 3.83960264 -12 1 C-8.31833802 -0.84083099 -4.02754194 -0.36729156 0 0 Z " fill="#D4A480" transform="translate(50,10)"/>
<path d="M0 0 C1.29550781 -0.02126953 1.29550781 -0.02126953 2.6171875 -0.04296875 C5.31611813 0.20506382 6.86285306 0.71367699 9.125 2.1875 C11.54951872 5.82427809 11.44784992 8.56891597 11.4609375 12.77734375 C11.4675943 13.51827774 11.4742511 14.25921173 11.48110962 15.02259827 C11.49122694 16.58852661 11.49592692 18.15449799 11.49560547 19.72045898 C11.49997842 22.11319149 11.53630267 24.50407827 11.57421875 26.89648438 C11.58008727 28.41926454 11.58405643 29.94205344 11.5859375 31.46484375 C11.60030853 32.17849594 11.61467957 32.89214813 11.62948608 33.62742615 C11.59785176 37.07564541 11.38215468 38.86059895 9.22119141 41.60766602 C6.03361018 44.01004642 4.19791447 44.3457128 0.25 44.375 C-0.61367187 44.38917969 -1.47734375 44.40335938 -2.3671875 44.41796875 C-5.06611813 44.16993618 -6.61285306 43.66132301 -8.875 42.1875 C-11.29951872 38.55072191 -11.19784992 35.80608403 -11.2109375 31.59765625 C-11.2175943 30.85672226 -11.2242511 30.11578827 -11.23110962 29.35240173 C-11.24122694 27.78647339 -11.24592692 26.22050201 -11.24560547 24.65454102 C-11.24997842 22.26180851 -11.28630267 19.87092173 -11.32421875 17.47851562 C-11.33008727 15.95573546 -11.33405643 14.43294656 -11.3359375 12.91015625 C-11.35030853 12.19650406 -11.36467957 11.48285187 -11.37948608 10.74757385 C-11.34785176 7.29935459 -11.13215468 5.51440105 -8.97119141 2.76733398 C-5.78361018 0.36495358 -3.94791447 0.0292872 0 0 Z " fill="#D4A480" transform="translate(15.875,9.8125)"/>
</svg>
