<?xml version="1.0" encoding="UTF-8"?>
<svg version="1.1" xmlns="http://www.w3.org/2000/svg" width="64" height="64">
<path d="M0 0 C0.90882683 0.44976448 0.90882683 0.44976448 1.83601379 0.90861511 C3.10775904 1.54095531 4.37748987 2.17736162 5.64526367 2.81762695 C7.58068277 3.79228967 9.52496002 4.74731849 11.47070312 5.70117188 C12.71021642 6.32045305 13.94916904 6.94085796 15.1875 7.5625 C16.30664795 8.12171143 17.4257959 8.68092285 18.57885742 9.25708008 C21.35589695 10.95682186 22.77819502 12.18590757 24.39453125 14.98046875 C24.94437715 18.67229123 24.8217525 20.34192634 22.73168945 23.46582031 C20.16738849 26.22486135 17.92203724 27.59691417 14.5625 29.27734375 C13.43392578 29.84324219 12.30535156 30.40914062 11.14257812 30.9921875 C9.96759766 31.56582031 8.79261719 32.13945313 7.58203125 32.73046875 C6.41865234 33.31957031 5.25527344 33.90867188 4.05664062 34.515625 C-1.56645013 37.29996703 -6.26290126 39.5154946 -12.60546875 39.98046875 C-14.98180668 38.84395931 -16.74987904 37.83605846 -18.60546875 35.98046875 C-18.73123768 33.43364783 -18.79411314 30.91541527 -18.80859375 28.3671875 C-18.81429382 27.60122757 -18.8199939 26.83526764 -18.8258667 26.0460968 C-18.83533168 24.42112617 -18.84185661 22.79613622 -18.84570312 21.17114258 C-18.85538818 18.68862142 -18.88638762 16.20693526 -18.91796875 13.72460938 C-18.92450067 12.14714034 -18.9297504 10.56966537 -18.93359375 8.9921875 C-18.94594055 8.25038742 -18.95828735 7.50858734 -18.9710083 6.74430847 C-18.95740899 3.585002 -18.80194786 1.3398528 -17.27246094 -1.45776367 C-12.02688673 -6.37222445 -5.49894127 -2.72283039 0 0 Z " fill="#D4A480" transform="translate(30.60546875,14.01953125)"/>
</svg>
