<svg width="114" height="86" viewBox="0 0 114 86" fill="none" xmlns="http://www.w3.org/2000/svg">
<path fill-rule="evenodd" clip-rule="evenodd" d="M74.3129 79.8065C72.5214 85.8738 62.7381 82.8491 65.2526 76.5259C67.309 71.3551 76.1482 73.5911 74.3129 79.8065ZM32.1352 73.6467C38.2675 72.0022 39.9343 81.7541 34.2525 83.0123C28.0307 84.3903 25.6915 75.375 32.1352 73.6467ZM79.851 62.0926C78.4787 60.5997 76.745 54.461 74.2452 52.3373C71.0247 49.6009 65.7587 50.8705 60.99 50.5556C60.6763 46.637 61.614 43.0476 57.8715 42.1613C56.2603 41.78 27.5537 42.0404 24.3785 42.0249C23.0829 42.0184 19.5683 41.5192 20.3284 43.4981C20.7932 44.7083 23.9132 44.2098 25.3393 44.2087C31.3211 44.2049 56.17 43.6656 58.3995 44.7851C59.1861 48.037 58.6826 59.6035 58.6917 63.8845L40.3784 63.8842C38.9716 63.8796 35.9888 63.3671 36.0436 65.0649C36.0966 66.7059 39.4649 66.1296 41.019 66.128L58.5912 66.1277C58.9442 68.9669 57.5835 72.3605 60.6404 71.8771C61.3098 69.7281 60.9296 56.3999 60.9296 52.9367C62.7653 52.7398 68.6814 52.6805 70.4154 52.9742C75.6542 53.8616 75.1988 61.1572 78.3781 63.8872C80.0298 65.3056 82.8531 66.0589 82.7975 68.4475C81.3617 68.451 81.4222 68.2744 80.4274 68.968L80.4705 70.1608C81.5287 70.9413 81.5367 70.6083 83.0394 70.7463C84.0584 77.5486 82.8176 77.2467 77.1789 77.2467C75.748 76.4356 75.7869 71.3068 69.8115 71.2576C66.0395 71.227 63.429 73.8579 62.7793 77.2467H40.036C38.4017 69.5119 29.31 69.7549 26.7868 75.1664C26.2554 76.3067 26.616 76.7013 25.6594 77.2467C23.4676 77.2467 20.0559 77.8775 19.5014 75.7802C18.9534 73.7083 19.9069 70.6903 19.0456 68.5311L17.5209 68.556C16.9789 70.0542 16.951 76.2224 17.8781 77.6677C19.3098 79.8995 22.361 79.4864 25.6594 79.4864C27.0949 80.2896 26.9115 85.2819 33.0177 85.3012C37.1117 85.3144 39.2668 82.9677 39.7393 79.4864H62.8016C63.5994 83.0845 65.8618 85.4479 70.1459 85.2952C75.8477 85.0926 75.7865 80.2737 77.1789 79.4864C84.3483 79.4864 85.2965 79.5212 85.3018 72.1265C85.3037 69.4472 85.4424 67.5741 84.0686 65.5657C82.8523 63.7881 81.1961 63.5553 79.851 62.0926Z" fill="#D5A581"/>
<path fill-rule="evenodd" clip-rule="evenodd" d="M53.0263 2.04686C53.0263 7.49543 53.0138 5.63665 54.6545 7.16661L54.6783 21.2718C54.6039 23.8748 50.7242 26.4316 48.0309 28.9042C47.1472 29.7157 46.5773 30.5464 45.6951 31.3563C45.0213 31.9754 43.5518 32.8462 44.2793 33.8811C44.8206 34.4745 43.4875 34.2541 45.1736 34.3274C46.0833 34.3671 46.733 33.3897 47.4137 32.7597C48.4527 31.7986 49.0517 31.04 50.093 30.0082C51.9506 28.1679 53.8858 26.6062 55.8031 24.8231C57.5542 23.1948 56.8886 19.4195 56.8886 15.1667C56.8886 13.3533 56.9014 11.5357 56.8825 9.72308C56.8293 4.50393 57.9744 7.83294 57.6071 4.9246C56.6372 4.41739 56.7068 4.5338 55.3821 4.52284L55.2604 2.20863H66.4984L66.371 4.52359C64.9076 4.52284 61.0457 3.92001 60.328 5.13135C58.9601 7.4395 63.3319 6.57398 64.8709 6.9508C64.8709 8.3118 64.8876 9.67319 64.891 11.0319C64.8974 13.7755 64.3887 12.8586 61.6746 15.9824C60.8711 16.9072 59.9719 17.1381 60.4194 18.4723C62.2083 19.921 63.9805 16.7689 65.1348 15.6089L78.7785 2.76006C79.8001 3.3697 82.2258 5.64914 83.1438 6.64655C84.7868 8.43049 85.7105 9.2616 87.3395 10.7658L104.383 27.0054C105.869 28.3588 107.073 29.7886 108.561 31.142L111.762 34.081C112.112 34.2791 111.432 34.2628 112.42 34.3142C115.915 34.4949 110.777 30.2803 109.938 29.4401C109.166 28.6668 108.718 28.0224 107.935 27.2964L83.521 4.02545C77.4167 -1.57619 79.8216 -1.11623 72.947 5.17518C71.8495 6.1794 68.2733 9.96535 67.105 10.4639V7.16661C68.7661 5.93221 69.2578 6.29505 68.5137 0.274265C65.1367 -0.195908 58.4688 0.0799968 54.7384 0.0845323C52.9473 0.0845323 53.0263 0.152183 53.0263 2.04686Z" fill="#D5A581"/>
<path fill-rule="evenodd" clip-rule="evenodd" d="M68.9412 36.2867L68.9404 44.9267C68.9404 46.7537 69.222 47.1747 70.8903 46.9219C71.526 44.8851 71.1806 39.2487 71.1806 36.6287L86.4593 36.5286V59.3267C86.4593 62.0974 88.699 62.094 88.699 59.3267V36.2867C88.699 34.6203 88.5641 34.2854 86.779 34.2854H71.1794C69.1177 34.2854 68.9412 34.3323 68.9412 36.2867Z" fill="#D5A581"/>
<path fill-rule="evenodd" clip-rule="evenodd" d="M103.323 63.8252C101.225 64.176 97.0837 63.9322 94.7767 63.9023C93.6179 63.8872 91.848 63.578 91.0917 64.3241C89.8807 65.5184 91.3649 66.1303 92.859 66.1303H103.419C105.373 66.1303 105.557 66.0495 105.557 64.1264V34.3668C105.557 32.5961 105.456 32.3089 103.68 32.434C102.827 34.5486 103.323 59.2543 103.323 63.8252Z" fill="#D5A581"/>
<path fill-rule="evenodd" clip-rule="evenodd" d="M68.7931 80.1013C67.5012 78.4289 67.5107 78.3514 68.7322 76.606C70.1012 76.4284 70.6386 76.713 71.3775 77.2368C71.8564 79.5764 71.0668 80.313 68.7931 80.1013ZM74.3127 79.8065C76.148 73.5911 67.3088 71.3551 65.2524 76.5259C62.7379 82.8491 72.5212 85.8738 74.3127 79.8065Z" fill="#FFFEFE"/>
<path fill-rule="evenodd" clip-rule="evenodd" d="M75.9247 65.8095L75.91 64.2021C73.8717 63.3407 71.3345 64.3532 69.2293 63.7848C67.3822 63.2859 67.5531 59.9025 68.0629 58.2349C69.3313 56.6441 69.6794 57.7844 70.5155 56.7787C72.3497 54.573 65.6369 53.2698 65.5866 60.2793C65.5666 63.0814 66.0038 65.1046 68.0822 65.862C69.5695 66.4036 74.6794 66.2865 75.9247 65.8095Z" fill="#D5A581"/>
<path fill-rule="evenodd" clip-rule="evenodd" d="M32.2703 50.9114L32.3602 49.5024C30.8201 48.7317 25.8908 49.0866 23.7391 49.0866C22.1767 49.0866 15.9593 48.265 15.7643 50.0871C15.5583 52.0108 20.2854 51.3268 23.419 51.3268C25.6108 51.3268 30.8031 51.6907 32.2703 50.9114Z" fill="#D5A581"/>
<path fill-rule="evenodd" clip-rule="evenodd" d="M10.5266 65.8713C12.9568 66.2391 22.0518 66.5018 23.7322 65.778L23.7145 64.2405C22.0636 63.4796 14.7604 63.8829 12.5392 63.8829C10.6441 63.8829 10.2344 64.1297 10.5266 65.8713Z" fill="#D5A581"/>
<path fill-rule="evenodd" clip-rule="evenodd" d="M14.7264 57.1943L14.7041 58.8176L16.6861 59.2402L23.7391 59.1657C26.5858 59.1657 26.6459 56.9275 23.7391 56.9275H16.6989L14.7264 57.1943Z" fill="#D5A581"/>
<path fill-rule="evenodd" clip-rule="evenodd" d="M34.1177 76.6018C30.2429 76.1206 30.1378 80.4263 34.0553 80.1129C35.3211 78.4129 35.3396 78.3706 34.1177 76.6018Z" fill="#D5A581"/>
<path fill-rule="evenodd" clip-rule="evenodd" d="M52.4227 37.6446C54.0978 37.8933 54.3759 37.4821 54.4167 35.6615C54.4659 33.4804 54.6911 32.6005 52.5905 32.8461C51.9608 34.034 52.0046 36.3052 52.4227 37.6446Z" fill="#D5A581"/>
<path fill-rule="evenodd" clip-rule="evenodd" d="M11.5385 50.9907L11.6262 49.4271C5.83177 47.0747 5.73388 53.3162 11.5385 50.9907Z" fill="#D5A581"/>
<path fill-rule="evenodd" clip-rule="evenodd" d="M13.8195 44.2102H14.4594C17.3613 44.2102 16.983 41.9629 14.4594 41.9629H13.8195C10.7755 41.9629 11.0646 44.2102 13.8195 44.2102Z" fill="#D5A581"/>
<path fill-rule="evenodd" clip-rule="evenodd" d="M7.38573 57.4067C5.87543 59.1786 10.0813 59.7534 10.9929 58.7144C12.5618 56.9263 8.31965 56.311 7.38573 57.4067Z" fill="#D5A581"/>
<path fill-rule="evenodd" clip-rule="evenodd" d="M31.2987 64.2472C30.626 63.8995 29.8035 63.6799 28.9584 63.9415C28.3091 64.1422 27.8238 64.841 28.1383 65.468C28.5627 66.3135 32.1109 67.0807 31.2987 64.2472Z" fill="#D5A581"/>
<path fill-rule="evenodd" clip-rule="evenodd" d="M0.119054 58.0466L0 58.6865L0.119054 58.0466Z" fill="#D5A581"/>
</svg>
