<svg width="25" height="25" viewBox="0 0 25 25" fill="none" xmlns="http://www.w3.org/2000/svg">
<path d="M10.6019 3.87879C11.3995 2.61072 13.2665 2.61072 14.0641 3.87879L15.9929 6.94553C16.2736 7.39169 16.7194 7.71187 17.2353 7.83782L20.7819 8.70358C22.2483 9.06156 22.8252 10.8168 21.8517 11.9585L19.4973 14.7196C19.1548 15.1213 18.9845 15.6394 19.0227 16.1634L19.2857 19.7652C19.3945 21.2545 17.8841 22.3393 16.4848 21.7768L13.1008 20.4165C12.6085 20.2186 12.0575 20.2186 11.5652 20.4165L8.18119 21.7768C6.78194 22.3393 5.27152 21.2545 5.38027 19.7652L5.64327 16.1634C5.68154 15.6394 5.51126 15.1213 5.16873 14.7196L2.8143 11.9585C1.84077 10.8168 2.4177 9.06156 3.88416 8.70358L7.43069 7.83782C7.94665 7.71187 8.39245 7.39169 8.67307 6.94553L10.6019 3.87879Z" fill="#D5A581"/>
</svg>
