<svg width="34" height="32" viewBox="0 0 34 32" fill="none" xmlns="http://www.w3.org/2000/svg">
<path fill-rule="evenodd" clip-rule="evenodd" d="M17.0001 2.66406L8.36803 3.18463C6.31227 3.30861 4.49848 4.52531 3.66193 6.34151L2.90758 7.97924C2.09391 9.74575 2.33459 11.7988 3.53665 13.3453L3.89356 13.8045L4.38525 24.2422C4.51943 27.0906 6.95179 29.3333 9.90682 29.3333H24.0933C27.0483 29.3333 29.4807 27.0906 29.6149 24.2422L30.0976 13.9954C31.4122 12.8096 31.8966 10.9598 31.2656 9.28536L30.281 6.67284C29.5297 4.67927 27.6254 3.30485 25.4313 3.17252L17.0001 2.66406ZM7.14604 24.1211L6.72759 15.2383C7.91125 15.3728 9.13297 15.1076 10.1666 14.4427L10.3101 14.3504C11.0905 13.8484 12.0898 13.7884 12.9287 14.1931L14.5282 14.9648C16.0843 15.7155 17.9159 15.7155 19.4719 14.9648L21.0715 14.1931C21.9104 13.7884 22.9097 13.8484 23.69 14.3504L23.8336 14.4427C24.8672 15.1076 26.0889 15.3728 27.2725 15.2383L26.8541 24.1211C26.787 25.5453 25.5708 26.6667 24.0933 26.6667H21.2655L21.5448 23.4325C21.7663 20.867 19.6681 18.6667 17.0001 18.6667C14.332 18.6667 12.2338 20.867 12.4554 23.4325L12.7347 26.6667H9.90682C8.42931 26.6667 7.21313 25.5453 7.14604 24.1211ZM25.3666 12.2239C26.1576 12.7328 27.188 12.7328 27.979 12.2239C28.6656 11.7823 28.9503 10.9449 28.6683 10.1967L27.6838 7.58415C27.3081 6.58737 26.356 5.90016 25.2589 5.834L17.0001 5.33593L8.54042 5.84611C7.51254 5.9081 6.60565 6.51644 6.18737 7.42455L5.43302 9.06227C5.02619 9.94553 5.14653 10.9721 5.74756 11.7453L6.20118 12.3289C6.9639 12.7299 7.90135 12.695 8.63357 12.2239L8.77709 12.1316C10.3827 11.0988 12.4387 10.9753 14.1646 11.808L15.7641 12.5797C16.5422 12.955 17.458 12.955 18.236 12.5797L19.8355 11.808C21.5615 10.9753 23.6175 11.0988 25.223 12.1316L25.3666 12.2239ZM18.7907 23.2111L18.4922 26.6667H15.5079L15.2094 23.2111C15.1221 22.2003 15.9488 21.3333 17.0001 21.3333C18.0513 21.3333 18.878 22.2003 18.7907 23.2111Z" fill="#D0B38B"/>
</svg>
