<svg width="16" height="18" viewBox="0 0 16 18" fill="none" xmlns="http://www.w3.org/2000/svg">
<path d="M13.2423 4.00729C12.3446 3.42193 11.6966 2.48535 11.4945 1.39356C11.4508 1.15767 11.4268 0.914897 11.4268 0.666504H8.56146L8.55687 12.1498C8.5087 13.4357 7.45032 14.4678 6.15286 14.4678C5.7496 14.4678 5.36989 14.367 5.03557 14.1911C4.26891 13.7876 3.74425 12.984 3.74425 12.0593C3.74425 10.7311 4.8248 9.65053 6.15286 9.65053C6.40077 9.65053 6.63859 9.69144 6.86355 9.7619V6.8367C6.63074 6.80501 6.3942 6.78519 6.15286 6.78519C3.24474 6.78519 0.878906 9.15114 0.878906 12.0593C0.878906 13.8435 1.77037 15.4225 3.13039 16.3773C3.98704 16.9787 5.02906 17.3332 6.15286 17.3332C9.06097 17.3332 11.4268 14.9674 11.4268 12.0593V6.23623C12.5506 7.04285 13.9275 7.51818 15.4132 7.51818V4.65283C14.6129 4.65283 13.8675 4.41491 13.2423 4.00729Z" fill="#7A7D87"/>
</svg>
