<svg width="18" height="18" viewBox="0 0 18 18" fill="none" xmlns="http://www.w3.org/2000/svg">
<path d="M9.1478 0.666504C13.7501 0.666504 17.4811 4.39746 17.4811 8.99984C17.4811 13.6022 13.7501 17.3332 9.1478 17.3332C7.61955 17.3332 6.18739 16.9218 4.95602 16.2038L0.817937 17.3332L1.94457 13.1928C1.22609 11.9612 0.814453 10.5286 0.814453 8.99984C0.814453 4.39746 4.54541 0.666504 9.1478 0.666504ZM6.14057 5.09011C6.03274 5.09769 5.92703 5.12402 5.83078 5.17326C5.75857 5.2102 5.69154 5.2636 5.58621 5.36305C5.48675 5.45696 5.42911 5.53898 5.36838 5.61805C5.06029 6.01917 4.89471 6.51155 4.89779 7.01732C4.89946 7.42617 5.00566 7.8235 5.17338 8.1945C5.51349 8.94684 6.07437 9.74217 6.81525 10.4798C6.99322 10.6569 7.16758 10.836 7.35559 11.0015C8.27514 11.8112 9.37097 12.395 10.5559 12.7067C10.5559 12.7067 11.0226 12.7783 11.0294 12.7788C11.184 12.7871 11.3383 12.7759 11.4931 12.768C11.7358 12.7555 11.9728 12.6898 12.1873 12.5756C12.3252 12.5022 12.3905 12.4657 12.5062 12.3927C12.5062 12.3927 12.5417 12.3687 12.6102 12.3177C12.7227 12.2338 12.7922 12.1748 12.8858 12.0777C12.9548 12.006 13.0141 11.9213 13.06 11.8259C13.1251 11.6899 13.1907 11.4303 13.2168 11.2148C13.2367 11.0501 13.2307 10.9601 13.2286 10.9043C13.225 10.8147 13.1509 10.7224 13.0697 10.6833L12.5851 10.4654C12.5851 10.4654 11.8606 10.1501 11.4174 9.94792C11.3712 9.92684 11.3207 9.91709 11.27 9.914C11.1588 9.90717 11.0342 9.93617 10.955 10.0197C10.9508 10.018 10.8956 10.0657 10.2927 10.7961C10.2595 10.8358 10.1816 10.9223 10.0468 10.9142C10.0265 10.9128 10.0062 10.9098 9.98647 10.9047C9.93189 10.8903 9.87872 10.8713 9.82672 10.8493C9.72364 10.8055 9.68747 10.7889 9.61705 10.7586C9.13597 10.5484 8.69447 10.2673 8.30422 9.92317C8.19955 9.831 8.10222 9.73175 8.00189 9.6345C7.65172 9.29509 7.36504 8.93409 7.15178 8.578C7.14014 8.55859 7.12219 8.5305 7.10287 8.49909C7.06798 8.44234 7.02949 8.37484 7.01743 8.3285C6.98645 8.20592 7.06863 8.10742 7.06863 8.10742C7.06863 8.10742 7.27146 7.88567 7.3657 7.76509C7.45637 7.649 7.53464 7.5355 7.58447 7.45459C7.68264 7.29678 7.71372 7.13369 7.66214 7.00786C7.42834 6.43788 7.18712 5.87097 6.93852 5.30729C6.88945 5.19605 6.74351 5.11522 6.61079 5.0999C6.56584 5.0947 6.52093 5.08949 6.47579 5.08652C6.36408 5.08107 6.25214 5.08227 6.14057 5.09011Z" fill="#7A7D87"/>
</svg>
