<svg width="94" height="91" viewBox="0 0 94 91" fill="none" xmlns="http://www.w3.org/2000/svg">
<path fill-rule="evenodd" clip-rule="evenodd" d="M51.5975 54.2824C58.689 52.0109 62.1227 63.3624 54.6022 65.3383C47.4906 67.2065 44.235 56.6405 51.5975 54.2824ZM80.3725 47.5326C88.9774 45.1938 92.1843 57.8393 83.9997 60.183C80.0909 61.3017 76.7759 58.7033 75.9289 55.7753C74.7697 51.7664 77.2937 48.3693 80.3725 47.5326ZM8.94057 46.3809C18.1422 43.6151 21.5714 57.6802 12.7583 59.9751C3.74184 62.3234 -0.173756 49.1207 8.94057 46.3809ZM35.1784 2.84153C38.4156 2.15403 41.2952 3.16505 43.6514 4.52153C47.9895 7.01866 46.5809 8.99686 49.9167 6.27107C53.8705 3.03995 60.5999 0.706094 65.6161 4.95164C69.9104 8.58603 71.1044 14.34 68.5312 21.0403C66.0568 27.4833 58.765 34.1031 53.0208 37.8373C47.734 41.274 48.2669 41.0011 46.0166 39.5959C43.7432 38.176 41.5144 36.7431 39.5037 35.2321C38.3963 34.4002 37.648 33.5653 36.544 32.7523C35.3187 31.8494 34.9089 31.115 33.7596 30.101C24.705 22.1111 22.4494 5.5454 35.1784 2.84153ZM72.8573 53.4543C69.8991 48.1675 67.6729 42.2189 66.0474 35.576C64.497 29.2419 65.0072 31.4847 67.9587 27.1908C69.3907 25.1075 71.1274 21.8911 71.8489 18.9026C73.6907 11.2737 70.2574 4.66401 65.7416 1.95334C57.0355 -3.27337 50.1144 3.52675 47.7231 4.57746C46.4029 2.73268 42.6748 0.79151 39.5956 0.273715C28.3995 -1.60962 21.0354 9.45759 24.756 20.5407C28.418 31.4488 31.7009 27.2542 29.7737 32.8381C28.1024 37.6797 26.8642 41.5352 24.728 46.3605C23.4475 49.253 20.4946 53.9162 20.4908 53.9252C20.0252 49.1627 18.8898 46.9437 15.918 45.0471C9.46329 40.9278 0.694412 45.7615 1.29914 53.7956C1.63665 58.2755 3.85712 59.9011 6.53151 61.7817C6.01825 62.3158 6.05453 62.2115 5.22304 62.6854C1.202 64.9766 0.0960984 68.1249 0.102902 72.9812C0.107437 76.1749 -0.26181 88.3654 0.371639 90.3984L2.21868 90.3399C3.6035 86.6314 1.48961 73.5353 2.94624 69.0589C4.96489 62.8544 12.7938 63.5838 16.9475 60.9729C21.0793 58.3764 24.0523 53.9347 26.5229 48.4778C28.2385 44.6881 31.6238 36.6252 32.433 32.5059L35.3383 34.8398C34.1776 41.745 29.6917 54.6634 26.6344 60.1089L23.1818 65.3564C22.8602 66.53 22.8678 88.9792 23.3788 90.4275L25.2201 90.3149C26.3929 87.1261 24.8649 68.0248 25.7546 65.9173C26.4836 64.1889 29.223 62.7202 33.8038 49.3498C34.4539 47.4517 37.0618 37.7697 37.5939 36.9487C38.6904 37.5138 39.1129 38.1302 40.2808 38.6359C39.9822 40.8224 38.3714 45.5294 37.6733 50.3933C35.9192 62.6106 38.7331 65.6845 38.7754 69.4496C38.8234 73.7062 38.3797 88.3326 39.0804 90.4117L40.9237 90.3297C41.5851 88.5858 41.2503 73.736 41.2574 69.7785C41.2627 66.9427 40.6735 66.4646 40.1942 63.9644C39.06 58.0461 40.2434 43.8014 42.6668 40.4905L46.3345 42.539C45.8133 47.2257 44.114 50.0837 44.3272 56.9942C44.4946 62.4322 45.6972 65.1202 49.916 67.386C53.228 69.1647 58.3575 70.9547 58.8602 74.6892C59.3701 78.4748 58.2842 87.5937 59.2446 90.4045L61.0909 90.3346C61.8033 88.4395 61.4552 79.0368 61.4208 76.1787C61.3502 70.328 58.5741 69.8163 55.9609 67.6529C58.4838 66.0632 59.6977 65.7521 60.8785 62.6745C62.7214 57.8703 59.3595 51.8159 53.584 51.5831C50.3003 51.4504 48.8649 52.6421 46.9902 54.2851C46.8133 52.4996 47.3391 49.9579 47.6909 48.1853C48.0341 46.4569 48.2904 43.7474 49.411 42.8765L57.6538 37.5622C60.324 46.2694 60.9522 52.8583 65.4105 61.4922C66.4854 63.574 67.6321 64.5113 67.6212 67.205C67.6038 71.5106 67.2817 88.4233 67.9129 90.3017C71.0518 91.033 70.0926 87.2191 70.0922 84.5016L70.0948 67.5372C70.1168 63.6692 69.5869 64.0824 68.1408 61.3029C65.0639 55.3872 60.8819 43.3036 59.9816 35.8617C60.6763 35.0858 62.0101 33.7199 62.8741 33.3427C64.5318 36.8573 67.4065 56.9988 77.9427 62.0607C80.5736 63.3245 83.132 63.0324 86.0173 64.8783C92.0067 68.7096 90.553 74.3275 90.553 82.2619C90.553 88.3439 89.7038 90.996 92.7195 90.3047C93.3518 88.3923 93.046 76.0703 92.9958 72.9752C92.8975 66.8867 89.9219 64.1954 86.2795 62.0871C88.5095 60.0058 90.8856 59.1735 91.2281 54.677C91.7924 47.2684 84.1384 42.2049 77.5685 46.068C73.3762 48.533 73.8733 51.8484 72.8573 53.4543Z" fill="#D5A581"/>
<path fill-rule="evenodd" clip-rule="evenodd" d="M9.23575 71.923C6.81572 71.3874 7.01377 72.6067 7.03569 74.8937C7.06971 78.4544 6.6804 88.4951 7.37319 90.4242L9.21986 90.3149C9.77243 88.7476 9.76791 73.5017 9.23575 71.923Z" fill="#D5A581"/>
</svg>
